<?xml version="1.0" standalone="no"?>
<!DOCTYPE svg PUBLIC "-//W3C//DTD SVG 20010904//EN"
 "http://www.w3.org/TR/2001/REC-SVG-20010904/DTD/svg10.dtd">
<svg version="1.0" xmlns="http://www.w3.org/2000/svg"
 width="1000.000000pt" height="1000.000000pt" viewBox="0 0 1000.000000 1000.000000"
 preserveAspectRatio="xMidYMid meet">

<g transform="translate(0.000000,1000.000000) scale(0.100000,-0.100000)"
fill="#000000" stroke="none">
<path d="M4314 9591 c-144 -102 -179 -132 -172 -151 5 -15 301 196 311 222 4
11 6 23 4 24 -2 2 -66 -40 -143 -95z"/>
<path d="M4955 9550 c-27 -10 -44 -31 -55 -69 -10 -38 -4 -39 22 -6 25 32 36
32 44 -2 7 -25 8 -25 20 -8 17 24 18 69 2 83 -7 5 -22 6 -33 2z"/>
<path d="M5524 9508 c4 -24 11 -60 17 -82 9 -35 13 -38 37 -31 15 3 45 9 67
13 53 9 68 46 40 97 -21 41 -39 47 -25 9 25 -64 -1 -88 -35 -31 l-20 32 -3
-43 c-3 -34 -7 -43 -19 -40 -9 2 -20 17 -24 33 -4 17 -10 42 -13 58 -11 46
-29 33 -22 -15z"/>
<path d="M5232 9524 c-25 -17 -29 -56 -7 -74 9 -8 27 -10 46 -6 31 6 31 5 17
-17 -8 -12 -45 -42 -82 -66 -36 -25 -64 -46 -61 -49 2 -3 28 7 57 21 101 49
151 128 111 174 -25 29 -55 36 -81 17z"/>
<path d="M5837 9466 c-169 -79 -201 -98 -205 -118 -4 -23 326 130 346 160 8
12 10 22 6 22 -5 0 -71 -29 -147 -64z"/>
<path d="M5394 9485 c-3 -14 1 -55 9 -92 22 -94 66 -403 69 -490 l4 -72 -50
-12 c-37 -9 -64 -25 -102 -61 -28 -26 -54 -48 -57 -48 -12 0 -27 40 -42 111
-18 84 -28 99 -64 99 -48 -1 -111 -39 -186 -112 -59 -58 -76 -82 -84 -118 -6
-25 -18 -66 -27 -93 -10 -30 -13 -57 -9 -75 4 -15 11 -67 14 -117 l7 -90 18
40 c12 28 18 68 20 132 1 55 6 97 13 104 7 7 43 15 82 18 141 13 149 86 16
137 -25 9 -42 21 -39 25 12 19 110 69 136 69 33 0 51 -25 67 -94 26 -108 109
-229 183 -267 22 -11 41 -19 42 -17 2 2 8 19 15 38 11 34 11 36 -26 65 -50 40
-93 87 -93 102 0 21 64 62 116 74 41 9 60 8 114 -6 115 -31 107 -31 119 11 6
22 11 42 11 45 0 4 -27 16 -61 29 -67 24 -99 50 -99 80 0 19 4 20 69 14 66 -6
74 -5 148 30 l79 37 58 -30 c67 -36 137 -41 175 -15 51 36 65 127 31 194 -24
47 -33 49 -48 15 -16 -36 -15 -50 8 -95 11 -22 20 -44 20 -50 0 -15 -86 -12
-128 6 l-37 15 25 19 c14 11 28 20 32 20 7 0 28 56 28 76 0 19 -105 37 -177
31 -107 -10 -151 -39 -173 -116 l-9 -31 55 0 c60 0 70 -12 23 -29 -70 -24
-147 -3 -173 47 -9 17 -20 75 -26 129 -12 110 -36 249 -52 306 -13 42 -35 49
-44 12z m435 -404 c21 -13 -5 -24 -29 -11 -11 6 -20 13 -20 15 0 8 34 5 49 -4z"/>
<path d="M4444 9476 c-7 -30 -5 -29 -39 -16 -22 8 -27 7 -34 -13 -23 -60 -22
-64 3 -71 13 -3 31 -9 40 -12 11 -4 19 2 26 21 9 23 14 26 39 20 27 -6 30 -3
41 30 14 42 8 52 -37 61 -29 6 -33 3 -39 -20z"/>
<path d="M3905 9459 c-22 -16 -81 -59 -132 -95 -84 -61 -111 -89 -99 -101 9
-9 281 193 284 210 5 23 -6 20 -53 -14z"/>
<path d="M4585 9355 c-94 -64 -203 -141 -244 -171 -40 -29 -77 -51 -83 -48 -5
3 -26 43 -47 87 -39 86 -71 126 -71 91 0 -10 31 -88 69 -173 38 -86 88 -203
112 -261 50 -123 74 -167 99 -180 32 -17 51 -11 85 25 29 32 35 35 59 25 49
-18 104 -12 131 15 20 19 25 34 25 75 0 27 3 50 8 50 4 0 29 -7 56 -15 70 -21
117 -19 157 8 29 19 34 29 37 68 3 49 -8 84 -99 307 -29 72 -59 132 -66 132
-19 0 -35 -38 -27 -63 3 -12 37 -88 75 -168 83 -178 88 -194 61 -208 -34 -18
-107 -12 -179 14 -82 30 -341 140 -350 149 -4 3 0 12 9 19 103 82 192 146 256
184 119 70 140 95 109 136 -11 16 -28 6 -182 -98z m-95 -371 c121 -49 199 -94
207 -120 4 -16 -47 -46 -88 -51 -34 -5 -42 -2 -67 25 l-29 31 -12 -40 c-8 -25
-21 -44 -36 -51 -44 -20 -67 8 -119 139 -25 66 -46 122 -46 126 0 13 50 -3
190 -59z"/>
<path d="M5040 9440 c-15 -27 -12 -48 34 -250 43 -189 61 -243 71 -217 14 34
-50 410 -79 465 l-13 26 -13 -24z"/>
<path d="M6047 9449 c-28 -16 -49 -66 -37 -88 5 -11 15 -21 22 -24 7 -2 -9
-14 -37 -26 -27 -12 -63 -28 -80 -36 l-30 -15 35 6 c74 12 133 37 171 73 43
42 51 77 21 104 -21 19 -39 21 -65 6z m40 -55 c3 -8 1 -20 -4 -25 -12 -12 -48
14 -39 29 10 17 36 15 43 -4z"/>
<path d="M5284 9307 c-46 -26 -60 -87 -24 -109 11 -7 20 -16 20 -20 0 -4 -27
-28 -60 -54 -33 -26 -58 -49 -56 -51 8 -8 87 38 125 73 53 48 74 93 60 132
-11 34 -37 45 -65 29z m36 -67 c0 -21 -33 -29 -45 -10 -9 15 4 30 26 30 12 0
19 -7 19 -20z"/>
<path d="M6198 9266 c-10 -7 -18 -15 -18 -17 0 -2 85 -4 190 -4 167 0 191 2
207 18 16 16 8 17 -172 17 -142 -1 -194 -4 -207 -14z"/>
<path d="M3380 9232 c-17 -17 -30 -41 -30 -53 l0 -22 23 21 c31 29 47 28 47
-3 0 -37 18 -30 25 9 15 75 -15 97 -65 48z"/>
<path d="M3530 9206 c0 -27 16 -53 83 -137 70 -89 156 -203 205 -275 11 -17
12 -17 6 6 -17 67 -50 137 -90 193 -23 34 -68 99 -98 144 -48 71 -79 103 -100
103 -3 0 -6 -15 -6 -34z"/>
<path d="M3924 9184 c-23 -33 -21 -105 3 -147 28 -47 62 -47 156 1 10 5 1 -38
-19 -95 -21 -58 -95 -122 -189 -163 -61 -26 -73 -35 -60 -43 32 -18 154 18
223 65 60 42 85 95 86 188 1 91 -23 145 -86 190 -52 38 -92 39 -114 4z m93
-65 l28 -11 -25 -13 c-35 -20 -80 -19 -80 0 0 13 15 23 47 34 1 1 14 -4 30
-10z"/>
<path d="M6292 9093 c-22 -74 -26 -124 -11 -134 8 -5 22 -6 31 -3 10 3 34 -1
54 -8 34 -12 37 -11 55 11 20 25 25 67 9 91 -8 12 -10 10 -10 -8 0 -27 -17
-62 -29 -62 -5 0 -13 17 -18 38 l-9 37 -18 -33 c-27 -52 -42 -36 -37 41 1 37
1 67 -1 67 -3 0 -10 -17 -16 -37z"/>
<path d="M3260 9070 c0 -30 14 -53 86 -145 34 -44 70 -97 80 -117 17 -37 17
-38 -8 -75 -14 -21 -52 -58 -85 -82 -58 -42 -60 -45 -52 -74 5 -16 11 -32 13
-35 3 -3 53 16 111 41 58 25 105 42 105 39 0 -18 -66 -85 -107 -109 -84 -49
-185 -31 -358 64 -44 24 -91 52 -104 62 l-23 18 161 159 c89 87 164 167 167
176 7 23 -13 58 -33 58 -10 0 -74 -55 -143 -122 -69 -68 -149 -143 -178 -168
-82 -72 -66 -127 58 -195 69 -38 310 -244 310 -265 0 -17 -93 19 -149 57 -31
21 -78 59 -104 86 -26 26 -55 47 -64 47 -8 0 -40 14 -70 31 -30 17 -56 29 -58
27 -12 -12 32 -67 70 -88 25 -14 45 -27 45 -30 0 -3 -11 -42 -25 -87 -27 -93
-22 -133 19 -172 29 -27 51 -19 90 32 24 32 50 113 40 129 -11 17 14 6 80 -37
68 -44 147 -75 191 -75 27 0 111 25 170 50 44 19 44 20 33 50 -14 41 -29 46
-78 26 -65 -26 -129 -21 -182 14 -44 29 -88 80 -69 80 4 0 28 -7 51 -15 65
-23 120 -19 180 13 41 21 72 52 143 142 51 63 107 124 125 135 27 17 32 24 27
49 -3 16 -7 32 -10 34 -2 3 -56 -18 -120 -47 -63 -28 -117 -51 -119 -51 -2 0
-6 27 -9 60 -8 72 -40 139 -114 238 -62 82 -93 106 -93 72z m-252 -704 c2 -10
1 -28 -2 -41 -6 -25 -53 -85 -66 -85 -8 0 8 72 29 123 12 30 34 32 39 3z"/>
<path d="M6552 9034 c-42 -29 -42 -52 -3 -119 47 -81 101 -204 101 -234 0 -22
-3 -23 -45 -19 -65 8 -75 20 -75 89 0 33 -4 59 -9 59 -18 0 -130 -82 -165
-120 -20 -22 -38 -40 -41 -40 -3 0 -5 31 -5 69 0 59 -4 74 -24 98 -19 22 -32
28 -63 27 -78 -2 -202 -91 -256 -184 l-19 -31 25 7 c14 3 34 1 44 -5 17 -10
17 -10 -2 -11 -46 -1 -91 -21 -107 -48 -9 -15 -24 -69 -32 -119 -9 -49 -23
-112 -31 -139 l-14 -49 19 25 c18 24 43 95 72 205 l14 50 85 3 c76 2 89 6 109
27 32 34 21 68 -35 101 -25 14 -45 28 -45 30 0 10 126 64 148 64 46 0 68 -38
76 -130 9 -111 32 -163 85 -189 52 -27 56 -26 70 7 11 27 9 31 -34 74 -44 44
-57 85 -37 114 14 20 78 63 105 69 26 7 27 6 27 -38 0 -37 5 -49 26 -66 53
-42 124 -20 163 49 32 58 25 109 -33 223 -25 50 -44 93 -41 95 8 8 211 -20
359 -49 l149 -30 23 22 c13 12 24 26 24 30 0 16 -352 81 -505 93 -65 6 -84 4
-103 -10z"/>
<path d="M2787 8868 c-76 -88 -106 -137 -78 -126 19 7 171 193 171 210 0 10
-2 18 -3 18 -2 0 -43 -46 -90 -102z"/>
<path d="M5828 8899 c-25 -14 -68 -91 -68 -122 0 -34 34 -57 82 -57 21 0 38
-4 38 -10 0 -16 -74 -60 -126 -76 -78 -23 -227 -19 -312 10 -40 14 -72 22 -72
18 0 -15 71 -54 140 -78 180 -63 341 -9 414 139 40 79 32 138 -24 170 -32 19
-48 21 -72 6z m27 -71 c28 -13 33 -28 9 -28 -21 0 -54 18 -54 30 0 13 14 13
45 -2z"/>
<path d="M4170 8891 c0 -26 24 -68 53 -93 l32 -28 -69 -65 c-109 -102 -258
-167 -380 -167 -55 0 -63 3 -88 31 -15 17 -30 31 -32 31 -3 0 2 -20 11 -45 27
-80 88 -107 201 -87 155 26 392 190 392 271 0 55 -36 119 -81 142 -21 10 -39
15 -39 10z"/>
<path d="M6857 8852 l-27 -28 30 -29 30 -29 32 31 31 31 -29 26 c-16 14 -32
26 -35 26 -3 0 -17 -13 -32 -28z"/>
<path d="M7226 8814 c-28 -28 -33 -53 -15 -71 19 -19 2 -30 -66 -43 -78 -15
-88 -33 -12 -24 83 9 144 33 172 65 29 35 32 61 9 83 -23 24 -58 19 -88 -10z
m54 -29 c13 -16 6 -35 -14 -35 -22 0 -37 25 -24 38 16 16 23 15 38 -3z"/>
<path d="M4538 8595 c-111 -67 -179 -113 -183 -126 -4 -11 -5 -22 -3 -24 4 -4
344 197 359 212 6 6 9 18 7 27 -2 13 -43 -7 -180 -89z"/>
<path d="M6861 8616 c-18 -19 -22 -33 -19 -68 2 -37 0 -43 -19 -46 -37 -5 -92
25 -114 63 -21 35 -22 35 -41 18 -16 -15 -19 -27 -15 -68 4 -43 1 -52 -22 -76
-18 -18 -47 -31 -85 -39 -114 -23 -218 11 -297 99 -47 52 -50 54 -44 26 16
-73 101 -154 189 -180 107 -32 181 -14 252 60 50 53 51 53 90 43 53 -15 86 -5
129 37 40 40 50 70 41 120 -8 41 -15 43 -45 11z"/>
<path d="M7062 8571 c-24 -15 199 -21 233 -6 27 12 17 13 -95 14 -69 0 -131
-3 -138 -8z"/>
<path d="M6977 8480 c-43 -37 -64 -84 -48 -104 6 -7 32 -19 56 -26 25 -7 48
-16 51 -21 2 -5 -14 -21 -37 -36 -77 -51 -184 -43 -323 23 -27 13 -51 22 -53
21 -2 -2 25 -31 60 -65 75 -71 119 -88 194 -72 105 23 198 101 224 191 30 100
-48 156 -124 89z m44 -39 c13 -11 21 -23 17 -27 -12 -11 -58 13 -58 31 0 20
13 19 41 -4z"/>
<path d="M6072 8479 c-56 -7 -121 -33 -110 -44 5 -5 147 20 171 30 16 7 25 26
10 24 -5 -1 -37 -5 -71 -10z"/>
<path d="M2760 8473 c-36 -7 -42 -16 -34 -57 6 -35 8 -37 35 -31 26 6 30 4 35
-23 6 -28 8 -30 43 -25 47 7 51 12 42 53 -6 32 -10 35 -38 32 -28 -3 -32 0
-35 24 -3 30 -10 33 -48 27z"/>
<path d="M4126 8461 c-2 -3 -7 -23 -11 -43 -6 -30 -4 -37 12 -41 10 -3 28 -8
39 -12 18 -4 23 0 28 22 4 15 9 35 12 44 3 12 -6 19 -36 27 -22 5 -42 7 -44 3z"/>
<path d="M2339 8383 c16 -32 52 -100 80 -152 28 -52 51 -97 51 -101 0 -4 -53
-47 -117 -95 -150 -112 -362 -278 -363 -285 0 -3 84 -25 188 -49 103 -24 195
-45 204 -47 11 -3 70 40 165 119 81 68 191 155 244 194 53 39 100 76 103 81 7
11 -96 248 -116 268 -10 10 -437 124 -463 124 -3 0 8 -26 24 -57z"/>
<path d="M5557 8413 l-36 -26 21 -31 c12 -17 23 -32 24 -34 1 -2 14 4 28 13
24 16 25 16 38 -4 16 -26 23 -26 59 0 35 24 35 28 8 63 -20 26 -22 26 -46 11
-14 -9 -26 -15 -27 -13 -2 2 -9 13 -17 25 l-15 22 -37 -26z"/>
<path d="M7450 8384 c-118 -31 -221 -61 -228 -68 -20 -20 -123 -257 -116 -268
3 -5 50 -42 103 -81 53 -39 163 -126 244 -194 95 -79 154 -122 165 -119 9 2
101 23 205 47 103 24 187 46 187 49 -1 7 -213 173 -362 285 -65 48 -118 91
-118 95 0 4 23 49 51 101 89 164 110 209 97 208 -7 0 -110 -25 -228 -55z"/>
<path d="M2163 8371 c-94 -69 -270 -220 -331 -284 l-44 -45 77 -120 77 -121
42 32 c190 147 397 310 401 317 6 10 -126 280 -136 280 -4 0 -43 -26 -86 -59z"/>
<path d="M5341 8394 c-129 -30 -180 -49 -167 -61 8 -9 291 59 305 73 8 7 13
15 10 17 -2 2 -69 -11 -148 -29z"/>
<path d="M7677 8294 c-37 -74 -65 -139 -62 -144 4 -7 211 -170 401 -317 l42
-32 77 121 77 120 -44 45 c-90 94 -393 343 -417 343 -3 0 -37 -61 -74 -136z"/>
<path d="M3720 8304 c-40 -39 -71 -75 -69 -81 6 -15 152 122 147 138 -3 8 -32
-14 -78 -57z"/>
<path d="M6140 8302 c-19 -9 -36 -17 -38 -18 -2 -1 4 -18 12 -38 16 -38 25
-42 56 -26 15 8 20 5 29 -20 l10 -30 38 17 c21 10 39 18 41 19 5 3 -26 74 -32
74 -3 0 -16 -4 -30 -9 -22 -9 -26 -7 -35 20 -5 16 -11 29 -13 28 -2 0 -19 -8
-38 -17z"/>
<path d="M6442 8187 l-32 -33 30 -29 c28 -27 31 -27 48 -12 10 9 22 17 27 17
5 0 17 -8 27 -17 17 -15 20 -15 48 12 l30 29 -29 30 c-30 29 -31 29 -51 11
-20 -18 -21 -18 -43 3 l-23 22 -32 -33z"/>
<path d="M1594 7857 c-125 -129 -244 -274 -327 -398 l-57 -87 72 -131 c40 -72
75 -131 78 -130 3 0 34 41 70 92 77 110 227 298 339 424 44 50 81 97 81 103 0
15 -131 240 -140 240 -4 0 -56 -51 -116 -113z"/>
<path d="M8216 7855 c-36 -63 -66 -119 -66 -125 0 -6 37 -53 81 -103 112 -126
262 -314 339 -424 36 -51 67 -92 70 -92 3 -1 38 58 78 130 l72 131 -57 87
c-32 47 -94 131 -138 186 -80 100 -291 325 -305 325 -4 0 -37 -52 -74 -115z"/>
<path d="M1816 7565 c-116 -131 -224 -266 -313 -393 l-75 -107 39 -6 c21 -4
120 -12 221 -19 l183 -13 17 24 c41 59 222 281 318 390 59 66 105 121 103 123
-8 7 -367 96 -387 96 -14 0 -49 -32 -106 -95z"/>
<path d="M7870 7613 c-96 -25 -177 -47 -179 -49 -2 -2 44 -57 103 -123 96
-109 277 -331 318 -390 l17 -24 183 13 c101 7 200 15 221 19 l39 6 -75 107
c-89 127 -197 262 -313 393 -69 77 -90 95 -112 94 -15 0 -106 -21 -202 -46z"/>
<path d="M3970 7442 c-206 -136 -440 -299 -457 -318 -15 -16 -23 -38 -23 -60
0 -36 12 -51 80 -103 59 -45 60 -53 60 -479 0 -213 4 -401 8 -417 27 -91 86
-159 171 -199 44 -20 66 -21 452 -26 427 -5 419 -4 456 -50 7 -8 13 -31 13
-50 1 -110 44 -172 187 -271 43 -29 143 -100 222 -156 79 -57 154 -103 166
-103 27 0 46 21 132 150 91 135 92 140 49 178 -78 68 -82 107 -21 199 61 92
29 87 610 93 l510 5 53 29 c71 40 214 160 342 288 58 58 123 117 146 132 44
29 152 56 226 56 36 0 50 4 58 19 14 27 13 353 -1 384 -12 26 -47 37 -122 37
-65 0 -185 29 -397 97 -312 100 -338 106 -460 101 -121 -5 -159 -20 -226 -90
-47 -48 -86 -120 -120 -222 -29 -84 -30 -107 -5 -137 l18 -23 65 32 c56 27 76
32 140 32 119 0 253 -44 363 -120 38 -26 46 -37 43 -58 -4 -36 -73 -86 -156
-113 -61 -20 -92 -23 -344 -27 -176 -2 -316 0 -380 8 -221 25 -220 25 -248 -3
-16 -16 -64 -119 -125 -268 -113 -274 -142 -319 -209 -319 -49 0 -90 18 -154
69 -62 49 -79 79 -63 108 8 17 24 21 89 25 43 3 93 13 110 22 113 58 272 489
272 737 0 148 -91 268 -205 269 -146 1 -213 -96 -315 -447 -11 -39 -32 -85
-46 -102 l-26 -31 -372 0 c-370 0 -373 0 -406 23 -74 50 -70 15 -74 575 -3
466 -5 504 -21 522 -22 24 -32 24 -65 2z m1325 -786 c35 -35 40 -70 21 -150
-44 -188 -129 -263 -215 -190 -42 35 -47 75 -20 154 62 184 145 255 214 186z"/>
<path d="M1115 7209 c-150 -243 -345 -629 -345 -685 0 -19 240 -228 249 -218
5 5 19 41 31 79 37 116 118 311 196 473 l74 152 -73 147 -74 146 -58 -94z"/>
<path d="M8753 7155 l-73 -145 74 -152 c78 -162 159 -357 196 -473 12 -38 26
-74 31 -79 9 -10 249 200 249 219 0 60 -292 625 -392 758 -12 16 -21 2 -85
-128z"/>
<path d="M2800 7251 c-41 -14 -69 -34 -108 -76 -94 -101 -132 -204 -132 -357
0 -85 3 -101 20 -118 30 -30 74 -25 141 16 55 34 62 36 126 32 56 -3 76 -9
110 -33 49 -35 250 -284 259 -322 12 -46 -7 -76 -66 -106 -75 -37 -183 -45
-305 -23 -121 23 -199 60 -267 130 -59 59 -100 72 -131 42 -18 -18 -32 -363
-17 -418 26 -91 118 -180 223 -215 77 -24 397 -30 490 -9 187 44 207 87 214
486 7 375 -24 569 -119 753 -99 190 -273 277 -438 218z"/>
<path d="M1328 6873 c-62 -120 -146 -319 -207 -490 l-40 -111 137 -6 c75 -4
168 -8 205 -9 l69 -2 47 120 c56 142 151 332 233 468 33 55 58 100 56 102 -2
1 -79 8 -173 14 -93 6 -193 14 -221 17 l-50 6 -56 -109z"/>
<path d="M8370 6963 c-107 -8 -196 -16 -198 -18 -2 -2 23 -47 56 -102 82 -136
177 -326 233 -468 l47 -120 69 2 c37 1 130 5 205 9 l137 6 -40 111 c-61 171
-145 370 -207 490 -49 96 -58 107 -81 106 -14 -1 -114 -8 -221 -16z"/>
<path d="M677 6273 c-66 -239 -155 -670 -140 -683 26 -24 316 -220 319 -217 5
5 124 760 124 787 0 15 -244 240 -261 240 -4 0 -22 -57 -42 -127z"/>
<path d="M9147 6288 c-70 -61 -127 -119 -127 -128 0 -26 119 -782 123 -787 7
-7 327 220 327 231 0 23 -82 416 -110 531 -40 160 -71 265 -79 265 -4 0 -64
-50 -134 -112z"/>
<path d="M1040 6098 c-40 -188 -118 -713 -107 -724 3 -4 87 15 186 41 l181 48
4 31 c3 17 10 72 16 121 22 179 72 387 125 518 7 16 -6 17 -193 17 l-200 0
-12 -52z"/>
<path d="M8555 6133 c53 -131 103 -339 125 -518 6 -49 13 -104 16 -121 l4 -31
181 -48 c99 -26 183 -45 186 -41 11 11 -67 536 -107 724 l-12 52 -200 0 c-187
0 -200 -1 -193 -17z"/>
<path d="M506 5427 c-10 -88 -19 -638 -12 -717 l7 -75 166 -63 c92 -34 168
-61 170 -59 1 2 -2 109 -9 238 -7 155 -8 277 -2 362 11 151 31 120 -172 264
l-142 101 -6 -51z"/>
<path d="M9355 5383 c-71 -51 -144 -103 -160 -116 l-30 -24 9 -129 c6 -86 5
-207 -2 -363 -7 -129 -10 -236 -9 -238 2 -2 78 25 170 59 l166 63 7 75 c8 84
-3 650 -14 721 l-7 45 -130 -93z"/>
<path d="M6741 5318 c-50 -51 -91 -100 -91 -110 0 -9 43 -56 96 -105 l97 -88
93 99 c52 55 94 105 94 111 0 12 -181 185 -193 185 -4 0 -47 -42 -96 -92z"/>
<path d="M1110 5274 c-91 -24 -176 -46 -188 -49 l-24 -6 4 -344 c1 -189 6
-346 10 -350 3 -3 91 16 195 43 l188 49 -2 49 c-1 27 -6 184 -10 350 l-8 301
-165 -43z"/>
<path d="M8716 5016 c-4 -165 -8 -323 -9 -350 l-2 -49 188 -49 c104 -27 192
-46 195 -43 4 4 9 161 10 350 l4 344 -39 10 c-21 6 -106 28 -189 50 l-152 39
-6 -302z"/>
<path d="M5060 4479 c-180 -48 -297 -84 -310 -95 -23 -22 0 -18 140 21 154 44
210 64 210 76 0 5 -1 9 -2 8 -2 0 -19 -5 -38 -10z"/>
<path d="M1125 4419 c-93 -33 -170 -61 -172 -62 -5 -5 67 -277 112 -422 26
-83 78 -235 116 -339 38 -104 69 -193 69 -198 0 -5 -10 -8 -22 -6 -15 2 -29
17 -42 43 -39 84 -128 341 -212 615 -47 157 -91 290 -98 296 -11 11 -328 124
-348 124 -12 0 -6 -48 28 -248 43 -254 125 -544 217 -772 l35 -85 84 -7 c45
-3 118 -6 161 -7 42 -1 77 -4 77 -9 0 -4 -17 -12 -37 -19 -97 -30 -253 -96
-253 -107 0 -7 35 -84 78 -171 43 -88 125 -258 183 -378 58 -122 112 -223 123
-229 20 -11 73 13 201 91 l63 39 30 -32 c31 -33 343 -451 360 -483 8 -15 -4
-36 -69 -123 -43 -57 -79 -114 -79 -126 0 -14 62 -79 197 -205 108 -101 243
-228 300 -281 67 -64 110 -98 125 -98 16 0 57 35 139 121 l116 122 64 -43
c149 -101 326 -225 351 -248 l26 -24 -54 -115 c-80 -171 -86 -157 114 -242 92
-38 277 -113 411 -166 l244 -97 23 24 c12 12 45 79 72 148 27 68 57 129 65
134 11 7 49 5 119 -7 320 -54 514 -91 522 -98 5 -4 3 -73 -4 -160 -13 -145
-12 -153 5 -165 28 -20 842 -20 870 0 17 12 18 20 5 165 -7 87 -9 156 -4 160
8 7 202 44 522 98 70 12 108 14 119 7 8 -5 38 -66 65 -134 27 -69 57 -133 67
-143 17 -17 21 -17 102 8 98 31 345 127 582 226 199 85 193 71 113 242 l-54
115 26 24 c25 23 202 147 351 248 l64 43 116 -122 c82 -86 123 -121 139 -121
15 0 58 34 125 98 57 53 192 180 300 281 135 126 197 191 197 205 0 12 -36 69
-79 126 -65 87 -77 108 -69 123 17 32 329 450 360 483 l30 32 63 -39 c128 -78
181 -102 201 -91 11 6 65 107 123 229 58 120 140 290 183 378 43 87 78 164 78
171 0 11 -156 77 -252 107 -21 7 -38 15 -38 19 0 5 35 8 78 9 42 1 115 4 160
7 l84 7 35 85 c92 228 174 518 217 772 34 200 40 248 28 248 -20 0 -337 -113
-348 -124 -7 -6 -51 -139 -98 -296 -84 -274 -173 -531 -212 -615 -13 -26 -27
-41 -42 -43 -12 -2 -22 1 -22 6 0 5 31 94 69 198 38 104 90 256 116 339 45
144 117 417 112 422 -6 6 -350 123 -361 123 -8 0 -17 -27 -25 -67 -25 -144
-95 -406 -152 -576 -33 -98 -57 -183 -52 -190 4 -6 35 -51 70 -98 67 -91 74
-105 46 -89 -28 16 -156 71 -158 68 -1 -2 -42 -88 -91 -192 -50 -108 -102
-204 -120 -223 l-32 -33 -487 0 c-455 1 -489 -1 -518 -18 -43 -24 -82 -82
-116 -172 -94 -245 -204 -526 -208 -530 -2 -3 -17 9 -32 26 -20 22 -52 105
-121 310 -51 153 -99 291 -107 306 -30 60 -4 59 -792 56 l-719 -3 -26 -24 -26
-24 -2 -881 c-3 -775 -5 -881 -18 -881 -13 0 -15 106 -18 881 l-2 881 -26 24
-26 24 -719 3 c-788 3 -762 4 -792 -56 -8 -15 -56 -153 -107 -306 -69 -205
-101 -288 -121 -310 -15 -17 -30 -29 -32 -26 -4 4 -114 285 -208 530 -34 90
-73 148 -116 172 -29 17 -63 19 -518 18 l-487 0 -32 33 c-18 19 -70 115 -120
223 -49 104 -90 190 -91 192 -2 3 -130 -52 -157 -68 -29 -16 -22 -2 45 89 35
47 66 92 70 98 5 7 -19 92 -52 190 -57 170 -127 432 -152 576 -9 50 -17 67
-28 66 -9 0 -92 -27 -186 -60z m470 -1059 c294 -665 730 -1160 1420 -1613 418
-274 1001 -477 1564 -544 187 -22 655 -22 842 0 563 67 1146 270 1564 544 698
458 1129 952 1433 1640 l31 71 203 -79 c197 -78 419 -169 427 -175 6 -5 -31
-84 -189 -407 l-141 -288 -77 42 c-145 81 -171 92 -192 83 -26 -12 -440 -571
-440 -594 0 -18 29 -62 109 -164 34 -44 42 -61 35 -75 -8 -18 -473 -460 -516
-490 -18 -13 -28 -6 -136 102 -71 71 -125 117 -137 117 -22 0 -85 -40 -310
-198 -168 -118 -205 -149 -205 -171 0 -8 25 -68 56 -134 31 -65 54 -120 52
-122 -12 -11 -104 -49 -396 -165 -386 -154 -338 -156 -403 15 -61 160 -59 159
-128 152 -82 -9 -669 -114 -682 -123 -12 -7 -7 -223 7 -290 5 -29 4 -32 -26
-38 -42 -8 -678 -8 -720 0 -30 6 -31 9 -26 38 14 67 19 283 7 290 -13 9 -600
114 -682 123 -69 7 -67 8 -128 -152 -65 -171 -17 -169 -403 -15 -292 116 -384
154 -396 165 -2 2 21 57 52 122 31 66 56 126 56 134 0 22 -37 53 -205 171
-225 158 -288 198 -310 198 -12 0 -66 -46 -137 -117 -108 -108 -118 -115 -136
-102 -43 30 -508 472 -516 490 -7 14 1 31 35 75 80 102 109 146 109 164 0 18
-397 563 -429 588 -23 18 -50 9 -170 -59 -58 -32 -109 -55 -112 -51 -11 11
-329 669 -329 680 0 5 8 12 18 15 9 3 150 60 312 125 162 66 298 117 301 113
4 -3 23 -44 44 -91z m1188 -344 c59 -25 83 -64 150 -241 36 -93 81 -210 102
-258 61 -149 63 -149 -215 36 l-246 164 -294 72 c-162 40 -310 79 -328 87 -21
9 -46 35 -72 75 -22 34 -40 66 -40 71 0 4 205 8 455 8 365 0 462 -3 488 -14z
m5377 6 c0 -5 -18 -37 -40 -71 -26 -40 -51 -66 -72 -75 -18 -8 -166 -47 -328
-87 l-294 -72 -246 -164 c-278 -185 -276 -185 -215 -36 21 48 66 165 102 258
66 175 91 215 148 241 24 10 128 13 488 14 251 0 457 -4 457 -8z m-3515 -32
c0 -11 -44 -26 -165 -57 -310 -80 -671 -205 -809 -279 -35 -19 -131 -80 -213
-135 -165 -110 -178 -117 -178 -98 0 29 173 535 188 553 10 10 26 22 37 27 11
4 272 7 580 6 490 -2 560 -4 560 -17z m1879 -10 c17 -18 50 -101 110 -285 47
-143 86 -266 86 -274 0 -19 -13 -12 -176 97 -82 54 -174 113 -204 130 -130 73
-493 199 -800 279 -96 24 -179 49 -184 53 -29 28 16 30 575 28 l569 -3 24 -25z
m-1584 -873 c0 -642 -3 -846 -12 -855 -16 -16 -100 -16 -116 0 -9 9 -12 213
-12 855 l0 843 70 0 70 0 0 -843z m260 0 c0 -642 -3 -846 -12 -855 -16 -16
-100 -16 -116 0 -9 9 -12 213 -12 855 l0 843 70 0 70 0 0 -843z m-502 797 c-2
-11 -60 -36 -178 -79 -614 -220 -979 -421 -1051 -580 -17 -36 -19 -71 -19
-322 l0 -283 -60 0 c-51 0 -65 4 -85 24 -61 61 -89 163 -107 383 -17 224 -18
224 188 361 285 191 698 369 1099 472 167 44 218 49 213 24z m802 -20 c395
-99 827 -283 1114 -476 206 -137 205 -137 188 -361 -18 -220 -46 -322 -107
-383 -20 -20 -34 -24 -85 -24 l-60 0 0 283 c0 251 -2 286 -19 322 -72 159
-437 360 -1051 580 -118 43 -176 68 -178 79 -5 25 39 20 198 -20z m-3221 -145
c106 -27 217 -59 246 -73 64 -29 542 -339 571 -371 18 -20 22 -44 34 -230 9
-142 10 -212 3 -224 -6 -10 -27 -17 -54 -19 -40 -2 -51 3 -122 55 l-78 58 5
158 c3 87 1 169 -4 181 -4 13 -53 58 -107 102 -54 43 -133 108 -175 145 -82
70 -89 74 -453 202 -84 30 -121 47 -123 60 -4 21 0 20 257 -44z m5699 44 c-2
-13 -39 -30 -123 -60 -364 -128 -371 -132 -453 -202 -42 -37 -121 -102 -175
-145 -54 -44 -103 -89 -107 -102 -5 -12 -7 -94 -4 -181 l5 -158 -78 -58 c-71
-52 -82 -57 -122 -55 -27 2 -48 9 -54 19 -7 12 -6 82 3 224 12 186 16 210 34
230 29 31 507 342 569 370 53 24 208 68 390 110 125 29 119 29 115 8z m-5689
-158 c102 -37 198 -76 215 -88 82 -58 329 -272 338 -293 8 -17 8 -58 1 -145
-6 -66 -13 -122 -16 -125 -11 -12 -308 217 -411 316 -121 116 -356 385 -356
406 0 10 6 11 23 4 12 -5 105 -39 206 -75z m5651 71 c0 -21 -235 -289 -356
-406 -103 -99 -400 -328 -411 -316 -3 3 -10 59 -16 125 -7 87 -7 128 1 145 9
21 256 235 338 293 17 12 113 51 215 88 101 36 193 70 204 75 11 5 21 9 23 9
1 1 2 -5 2 -13z m-3605 -271 c121 -89 267 -195 325 -237 l105 -75 3 -428 c2
-336 0 -430 -10 -437 -18 -11 -156 -10 -177 2 -32 16 -49 80 -65 245 -16 158
-46 523 -46 557 0 17 -28 18 -470 18 l-470 0 0 58 c0 125 29 167 188 273 148
99 363 205 387 191 5 -3 109 -78 230 -167z m1753 91 c113 -57 290 -175 330
-220 37 -42 52 -91 52 -168 l0 -58 -470 0 c-442 0 -470 -1 -470 -18 0 -34 -30
-399 -46 -557 -16 -165 -33 -229 -65 -245 -21 -12 -159 -13 -177 -2 -10 7 -12
101 -10 437 l3 428 105 75 c58 42 208 151 333 243 l229 168 49 -19 c26 -11 88
-39 137 -64z m-2398 -706 l0 -140 -35 0 -35 0 0 133 c0 74 3 137 7 140 3 4 19
7 35 7 l28 0 0 -140z m148 -2 l3 -138 -36 0 -35 0 0 141 0 140 33 -3 32 -3 3
-137z m142 2 l0 -140 -35 0 -35 0 0 133 c0 74 3 137 7 140 3 4 19 7 35 7 l28
0 0 -140z m140 0 l0 -140 -35 0 -35 0 0 133 c0 74 3 137 7 140 3 4 19 7 35 7
l28 0 0 -140z m138 -2 l3 -138 -36 0 -35 0 0 141 0 140 33 -3 32 -3 3 -137z
m140 0 l3 -138 -41 0 -40 0 0 133 c0 74 3 137 7 141 4 4 21 6 38 4 l30 -3 3
-137z m1280 0 l3 -138 -41 0 -40 0 0 133 c0 74 3 137 7 141 4 4 21 6 38 4 l30
-3 3 -137z m132 2 l0 -140 -35 0 -35 0 0 133 c0 74 3 137 7 140 3 4 19 7 35 7
l28 0 0 -140z m138 -2 l3 -138 -36 0 -35 0 0 141 0 140 33 -3 32 -3 3 -137z
m140 0 l3 -138 -36 0 -35 0 0 141 0 140 33 -3 32 -3 3 -137z m142 2 l0 -140
-35 0 -35 0 0 133 c0 74 3 137 7 140 3 4 19 7 35 7 l28 0 0 -140z m148 -2 l3
-138 -36 0 -35 0 0 141 0 140 33 -3 32 -3 3 -137z"/>
<path d="M6080 4384 c-33 -32 -65 -64 -70 -73 -14 -26 46 -394 73 -450 26 -54
42 -37 73 79 12 45 14 96 8 278 -3 122 -10 222 -15 222 -4 0 -35 -25 -69 -56z"/>
<path d="M4955 4394 c-248 -68 -225 -54 -244 -157 l-9 -48 75 -81 c54 -59 71
-84 63 -92 -6 -6 -63 -12 -139 -14 -108 -3 -131 -1 -145 13 -13 14 -16 41 -16
171 0 85 -2 154 -5 154 -3 0 -33 -14 -66 -31 l-61 -30 4 -177 c5 -268 11 -274
269 -269 177 4 186 6 249 63 l39 35 44 -45 c39 -39 52 -45 101 -51 64 -8 112
-3 153 17 25 12 32 12 62 -6 33 -19 36 -19 81 -3 43 15 51 15 76 2 38 -19 52
-19 94 3 33 18 35 18 68 -1 28 -17 45 -19 114 -14 95 6 122 22 156 87 41 81
23 248 -34 311 -16 17 -18 16 -60 -33 -24 -29 -44 -55 -44 -60 0 -4 15 -25 33
-45 68 -77 58 -96 -49 -96 -84 0 -95 6 -136 82 -21 38 -33 33 -55 -20 -13 -33
-20 -39 -45 -39 -25 0 -32 6 -45 40 -9 22 -22 40 -30 40 -7 0 -22 -20 -32 -44
-31 -70 -60 -66 -103 12 -21 39 -35 40 -49 5 -21 -55 -47 -73 -109 -73 -69 0
-116 28 -206 122 -63 65 -89 104 -77 111 5 2 45 14 91 27 47 13 87 30 91 39 5
9 12 40 16 69 8 62 11 62 -120 26z"/>
<path d="M5417 4392 l-27 -28 30 -29 c16 -16 31 -27 32 -24 2 2 14 16 27 32
l24 27 -23 25 c-13 14 -26 25 -30 25 -3 0 -18 -13 -33 -28z"/>
<path d="M5736 4361 l-28 -29 29 -26 c15 -14 30 -26 34 -26 3 0 16 11 29 25
l24 26 -30 30 -30 29 -28 -29z"/>
<path d="M5345 4300 l-29 -30 27 -27 27 -28 30 31 30 30 -28 27 -28 27 -29
-30z"/>
<path d="M5487 4302 l-27 -28 30 -29 30 -29 27 27 28 27 -31 30 -30 30 -27
-28z"/>
<path d="M6376 4233 c-20 -37 -32 -69 -28 -72 5 -4 40 -27 78 -53 77 -52 111
-84 100 -96 -4 -4 -46 -9 -92 -11 l-84 -3 -40 43 c-46 50 -54 46 -65 -28 -10
-66 2 -117 34 -147 34 -32 78 -41 166 -31 57 6 73 12 105 41 63 57 78 177 33
271 -24 52 -124 153 -150 153 -16 0 -30 -16 -57 -67z"/>
<path d="M3976 4228 c-16 -26 -66 -185 -66 -211 0 -11 -8 -17 -22 -18 -13 0
-89 -4 -169 -8 -134 -7 -150 -9 -192 -34 -45 -26 -77 -69 -77 -101 0 -8 12
-24 26 -35 22 -17 41 -21 110 -21 77 0 84 -2 84 -20 0 -19 -7 -20 -152 -20
-132 0 -157 3 -194 20 -59 29 -78 62 -78 135 -1 53 -3 60 -20 60 -14 0 -28
-16 -45 -49 -21 -40 -26 -64 -26 -125 0 -92 21 -134 87 -171 40 -24 52 -25
193 -25 142 0 153 1 207 27 64 29 98 73 98 123 0 65 -51 95 -162 95 -44 0 -58
4 -58 15 0 35 158 32 231 -5 59 -31 164 -37 239 -15 70 21 85 21 140 0 29 -12
56 -16 73 -11 36 9 75 69 83 128 12 90 -42 160 -191 247 -80 47 -99 50 -119
19z m95 -174 c9 -11 10 -20 2 -32 -15 -24 -46 -26 -73 -4 -21 17 -22 22 -11
36 17 21 65 21 82 0z m124 -68 c26 -21 28 -26 15 -40 -13 -17 -54 -15 -73 3
-9 9 8 61 20 61 5 0 21 -11 38 -24z"/>
</g>
</svg>
